<?xml version="1.0" encoding="UTF-8" standalone="no"?>
<!DOCTYPE svg PUBLIC "-//W3C//DTD SVG 1.1//EN"
 "http://www.w3.org/Graphics/SVG/1.1/DTD/svg11.dtd">
<!-- Generated by graphviz version 5.0.0 (0)
 -->
<!-- Pages: 1 -->
<svg width="563pt" height="401pt"
 viewBox="0.00 0.00 562.54 401.34" xmlns="http://www.w3.org/2000/svg" xmlns:xlink="http://www.w3.org/1999/xlink">
<g id="graph0" class="graph" transform="scale(1 1) rotate(0) translate(36 365.34)">
<polygon fill="white" stroke="transparent" points="-36,36 -36,-365.34 526.54,-365.34 526.54,36 -36,36"/>
<!-- db&#45;mysql -->
<g id="node1" class="node">
<title>db&#45;mysql</title>
<polygon fill="none" stroke="black" points="118.04,-132.12 21.04,-132.12 21.04,-128.12 17.04,-128.12 17.04,-124.12 21.04,-124.12 21.04,-102.12 17.04,-102.12 17.04,-98.12 21.04,-98.12 21.04,-94.12 118.04,-94.12 118.04,-132.12"/>
<polyline fill="none" stroke="black" points="21.04,-128.12 25.04,-128.12 25.04,-124.12 21.04,-124.12 "/>
<polyline fill="none" stroke="black" points="21.04,-102.12 25.04,-102.12 25.04,-98.12 21.04,-98.12 "/>
<text text-anchor="middle" x="69.54" y="-116.92" font-family="Times,serif" font-size="14.00">db&#45;mysql</text>
<text text-anchor="middle" x="69.54" y="-101.92" font-family="Times,serif" font-size="14.00">(mysql:8.2)</text>
</g>
<!-- db&#45;mysql&#45;vol -->
<g id="node2" class="node">
<title>db&#45;mysql&#45;vol</title>
<path fill="none" stroke="black" d="M123.04,-32.73C123.04,-34.53 99.06,-36 69.54,-36 40.02,-36 16.04,-34.53 16.04,-32.73 16.04,-32.73 16.04,-3.27 16.04,-3.27 16.04,-1.47 40.02,0 69.54,0 99.06,0 123.04,-1.47 123.04,-3.27 123.04,-3.27 123.04,-32.73 123.04,-32.73"/>
<path fill="none" stroke="black" d="M123.04,-32.73C123.04,-30.92 99.06,-29.45 69.54,-29.45 40.02,-29.45 16.04,-30.92 16.04,-32.73"/>
<text text-anchor="middle" x="69.54" y="-14.3" font-family="Times,serif" font-size="14.00">db&#45;mysql&#45;vol</text>
</g>
<!-- db&#45;mysql&#45;&gt;db&#45;mysql&#45;vol -->
<g id="edge1" class="edge">
<title>db&#45;mysql&#45;&gt;db&#45;mysql&#45;vol</title>
<path fill="none" stroke="black" stroke-dasharray="5,2" d="M69.54,-83.59C69.54,-71.7 69.54,-57.96 69.54,-46.22"/>
<polygon fill="black" stroke="black" points="66.04,-83.73 69.54,-93.73 73.04,-83.73 66.04,-83.73"/>
<polygon fill="black" stroke="black" points="73.04,-46.1 69.54,-36.1 66.04,-46.1 73.04,-46.1"/>
<text text-anchor="middle" x="118.54" y="-57.8" font-family="Times,serif" font-size="14.00">/var/lib/mysql</text>
</g>
<!-- 0.0.0.03307 -->
<g id="node3" class="node">
<title>0.0.0.03307</title>
<ellipse fill="none" stroke="black" cx="69.54" cy="-259.79" rx="69.59" ry="69.59"/>
<text text-anchor="middle" x="69.54" y="-256.09" font-family="Times,serif" font-size="14.00">0.0.0.0:3307</text>
</g>
<!-- 0.0.0.03307&#45;&gt;db&#45;mysql -->
<g id="edge2" class="edge">
<title>0.0.0.03307&#45;&gt;db&#45;mysql</title>
<path fill="none" stroke="black" d="M69.54,-189.85C69.54,-173.08 69.54,-156.07 69.54,-142.43"/>
<polygon fill="black" stroke="black" points="73.04,-142.28 69.54,-132.28 66.04,-142.28 73.04,-142.28"/>
<text text-anchor="middle" x="88.04" y="-161.05" font-family="Times,serif" font-size="14.00">3306</text>
</g>
<!-- db&#45;postgresql -->
<g id="node4" class="node">
<title>db&#45;postgresql</title>
<polygon fill="none" stroke="black" points="284.04,-132.12 169.04,-132.12 169.04,-128.12 165.04,-128.12 165.04,-124.12 169.04,-124.12 169.04,-102.12 165.04,-102.12 165.04,-98.12 169.04,-98.12 169.04,-94.12 284.04,-94.12 284.04,-132.12"/>
<polyline fill="none" stroke="black" points="169.04,-128.12 173.04,-128.12 173.04,-124.12 169.04,-124.12 "/>
<polyline fill="none" stroke="black" points="169.04,-102.12 173.04,-102.12 173.04,-98.12 169.04,-98.12 "/>
<text text-anchor="middle" x="226.54" y="-116.92" font-family="Times,serif" font-size="14.00">db&#45;postgresql</text>
<text text-anchor="middle" x="226.54" y="-101.92" font-family="Times,serif" font-size="14.00">(postgres:16)</text>
</g>
<!-- db&#45;postgresql&#45;vol -->
<g id="node5" class="node">
<title>db&#45;postgresql&#45;vol</title>
<path fill="none" stroke="black" d="M296.54,-32.73C296.54,-34.53 265.17,-36 226.54,-36 187.92,-36 156.54,-34.53 156.54,-32.73 156.54,-32.73 156.54,-3.27 156.54,-3.27 156.54,-1.47 187.92,0 226.54,0 265.17,0 296.54,-1.47 296.54,-3.27 296.54,-3.27 296.54,-32.73 296.54,-32.73"/>
<path fill="none" stroke="black" d="M296.54,-32.73C296.54,-30.92 265.17,-29.45 226.54,-29.45 187.92,-29.45 156.54,-30.92 156.54,-32.73"/>
<text text-anchor="middle" x="226.54" y="-14.3" font-family="Times,serif" font-size="14.00">db&#45;postgresql&#45;vol</text>
</g>
<!-- db&#45;postgresql&#45;&gt;db&#45;postgresql&#45;vol -->
<g id="edge3" class="edge">
<title>db&#45;postgresql&#45;&gt;db&#45;postgresql&#45;vol</title>
<path fill="none" stroke="black" stroke-dasharray="5,2" d="M226.54,-83.59C226.54,-71.7 226.54,-57.96 226.54,-46.22"/>
<polygon fill="black" stroke="black" points="223.04,-83.73 226.54,-93.73 230.04,-83.73 223.04,-83.73"/>
<polygon fill="black" stroke="black" points="230.04,-46.1 226.54,-36.1 223.04,-46.1 230.04,-46.1"/>
<text text-anchor="middle" x="310.04" y="-57.8" font-family="Times,serif" font-size="14.00">/var/lib/postgresql/data</text>
</g>
<!-- 0.0.0.05432 -->
<g id="node6" class="node">
<title>0.0.0.05432</title>
<ellipse fill="none" stroke="black" cx="226.54" cy="-259.79" rx="69.59" ry="69.59"/>
<text text-anchor="middle" x="226.54" y="-256.09" font-family="Times,serif" font-size="14.00">0.0.0.0:5432</text>
</g>
<!-- 0.0.0.05432&#45;&gt;db&#45;postgresql -->
<g id="edge4" class="edge">
<title>0.0.0.05432&#45;&gt;db&#45;postgresql</title>
<path fill="none" stroke="black" d="M226.54,-189.85C226.54,-173.08 226.54,-156.07 226.54,-142.43"/>
<polygon fill="black" stroke="black" points="230.04,-142.28 226.54,-132.28 223.04,-142.28 230.04,-142.28"/>
<text text-anchor="middle" x="245.04" y="-161.05" font-family="Times,serif" font-size="14.00">5432</text>
</g>
<!-- db&#45;redis -->
<g id="node7" class="node">
<title>db&#45;redis</title>
<path fill="none" stroke="black" d="M435.54,-134.6C435.54,-137.24 412.24,-139.38 383.54,-139.38 354.85,-139.38 331.54,-137.24 331.54,-134.6 331.54,-134.6 331.54,-91.65 331.54,-91.65 331.54,-89.01 354.85,-86.87 383.54,-86.87 412.24,-86.87 435.54,-89.01 435.54,-91.65 435.54,-91.65 435.54,-134.6 435.54,-134.6"/>
<path fill="none" stroke="black" d="M435.54,-134.6C435.54,-131.97 412.24,-129.83 383.54,-129.83 354.85,-129.83 331.54,-131.97 331.54,-134.6"/>
<text text-anchor="middle" x="383.54" y="-116.92" font-family="Times,serif" font-size="14.00">db&#45;redis</text>
<text text-anchor="middle" x="383.54" y="-101.92" font-family="Times,serif" font-size="14.00">(redis:7.2.3)</text>
</g>
<!-- db&#45;redis&#45;&gt;db&#45;redis -->
<g id="edge5" class="edge">
<title>db&#45;redis&#45;&gt;db&#45;redis</title>
<path fill="none" stroke="black" stroke-dasharray="5,2" d="M445.59,-120.25C450.5,-118.69 453.54,-116.32 453.54,-113.12 453.54,-109.93 450.5,-107.56 445.59,-106"/>
<polygon fill="black" stroke="black" points="444.92,-116.82 435.75,-122.11 446.22,-123.7 444.92,-116.82"/>
<polygon fill="black" stroke="black" points="446.22,-102.55 435.75,-104.14 444.92,-109.43 446.22,-102.55"/>
<text text-anchor="middle" x="472.04" y="-109.42" font-family="Times,serif" font-size="14.00">/data</text>
</g>
<!-- 0.0.0.06379 -->
<g id="node8" class="node">
<title>0.0.0.06379</title>
<ellipse fill="none" stroke="black" cx="383.54" cy="-259.79" rx="69.59" ry="69.59"/>
<text text-anchor="middle" x="383.54" y="-256.09" font-family="Times,serif" font-size="14.00">0.0.0.0:6379</text>
</g>
<!-- 0.0.0.06379&#45;&gt;db&#45;redis -->
<g id="edge6" class="edge">
<title>0.0.0.06379&#45;&gt;db&#45;redis</title>
<path fill="none" stroke="black" d="M383.54,-189.85C383.54,-175.89 383.54,-161.76 383.54,-149.55"/>
<polygon fill="black" stroke="black" points="387.04,-149.37 383.54,-139.37 380.04,-149.37 387.04,-149.37"/>
<text text-anchor="middle" x="402.04" y="-161.05" font-family="Times,serif" font-size="14.00">6379</text>
</g>
</g>
</svg>
